mtllib model_7.mtl
o model_7
v -102.87129974365234 226.23643493652344 -164.9770965576172 
v 82.35820007324219 226.23643493652344 -164.9770965576172 
v -102.87129974365234 224.9161834716797 -163.69395446777344 
v 82.35820007324219 224.9161834716797 -163.69395446777344 
v -102.87129974365234 224.4210968017578 -161.94886779785156 
v 82.35820007324219 224.4210968017578 -161.94886779785156 
v -102.87129974365234 224.9161834716797 -160.20379638671875 
v 82.35820007324219 224.9161834716797 -160.20379638671875 
v -102.87129974365234 226.23643493652344 -158.92063903808594 
v 82.35820007324219 226.23643493652344 -158.92063903808594 
v -102.87129974365234 227.88673400878906 -158.45870971679688 
v 82.35820007324219 227.88673400878906 -158.45870971679688 
v -102.87129974365234 229.70205688476562 -158.92063903808594 
v 82.35820007324219 229.70205688476562 -158.92063903808594 
v -102.87129974365234 230.85726928710938 -160.20379638671875 
v 82.35820007324219 230.85726928710938 -160.20379638671875 
v -102.87129974365234 231.35235595703125 -161.94886779785156 
v 82.35820007324219 231.35235595703125 -161.94886779785156 
v 82.35820007324219 243.5645751953125 -164.9770965576172 
v -102.87129974365234 243.5645751953125 -164.9770965576172 
v 82.35820007324219 244.88482666015625 -163.69395446777344 
v -102.87129974365234 244.88482666015625 -163.69395446777344 
v 82.35820007324219 245.37991333007812 -161.94886779785156 
v -102.87129974365234 245.37991333007812 -161.94886779785156 
v 82.35820007324219 244.88482666015625 -160.20379638671875 
v -102.87129974365234 244.88482666015625 -160.20379638671875 
v 82.35820007324219 243.5645751953125 -158.92063903808594 
v -102.87129974365234 243.5645751953125 -158.92063903808594 
v 82.35820007324219 241.91427612304688 -158.45870971679688 
v -102.87129974365234 241.91427612304688 -158.45870971679688 
v 82.35820007324219 240.0989532470703 -158.92063903808594 
v -102.87129974365234 240.0989532470703 -158.92063903808594 
v 82.35820007324219 238.94374084472656 -160.20379638671875 
v -102.87129974365234 238.94374084472656 -160.20379638671875 
v 82.35820007324219 238.4486541748047 -161.94886779785156 
v -102.87129974365234 238.4486541748047 -161.94886779785156 
vn 0.0018878303235396743 -0.7078762650489807 -0.7063339352607727 
vn 0.0018878303235396743 -0.7078762650489807 -0.7063339352607727 
vn 0.0018878303235396743 -0.7078762650489807 -0.7063339352607727 
vn 0.0018878303235396743 -0.7078762650489807 -0.7063339352607727 
vn 3.0023851243718425e-13 -0.9663954377174377 -0.25706008076667786 
vn 3.0023851243718425e-13 -0.9663954377174377 -0.25706008076667786 
vn 0.0037714340724051 -0.8667445182800293 0.4987381398677826 
vn 0.0037714340724051 -0.8667445182800293 0.4987381398677826 
vn 0.00376924779266119 -0.707868754863739 0.7063339352607727 
vn 0.00376924779266119 -0.707868754863739 0.7063339352607727 
vn 0.0018760409438982606 -0.2591639459133148 0.9658315181732178 
vn 0.0018760409438982606 -0.2591639459133148 0.9658315181732178 
vn -0.0037625895347446203 0.5006163716316223 0.865661084651947 
vn -0.0037625895347446203 0.5006163716316223 0.865661084651947 
vn -0.00376924779266119 0.707868754863739 0.7063339352607727 
vn -0.00376924779266119 0.707868754863739 0.7063339352607727 
vn 0.0018857260001823306 0.9663935899734497 0.25706008076667786 
vn 0.0018857260001823306 0.9663935899734497 0.25706008076667786 
vn 0.0018878303235396743 0.7078762650489807 -0.7063339352607727 
vn 0.0018878303235396743 0.7078762650489807 -0.7063339352607727 
vn 0.0018878303235396743 0.7078762650489807 -0.7063339352607727 
vn 0.0018878303235396743 0.7078762650489807 -0.7063339352607727 
vn 0.0018857260001823306 0.9663935899734497 0.25706008076667786 
vn 0.0018857260001823306 0.9663935899734497 0.25706008076667786 
vn -0.0037714340724051 0.8667445182800293 0.4987381398677826 
vn -0.0037714340724051 0.8667445182800293 0.4987381398677826 
vn 0.0018760409438982606 0.2591639459133148 0.9658315181732178 
vn 0.0018760409438982606 0.2591639459133148 0.9658315181732178 
vn 0.0018760409438982606 -0.2591639459133148 0.9658315181732178 
vn 0.0018760409438982606 -0.2591639459133148 0.9658315181732178 
vn 0.0037625895347446203 -0.5006163716316223 0.865661084651947 
vn 0.0037625895347446203 -0.5006163716316223 0.865661084651947 
vn 0.0018857260001823306 -0.9663935899734497 0.25706008076667786 
vn 0.0018857260001823306 -0.9663935899734497 0.25706008076667786 
vn 0.0018857260001823306 -0.9663935899734497 0.25706008076667786 
vn 0.0018857260001823306 -0.9663935899734497 0.25706008076667786 
s on 
f 1//1 2//2 3//3 
f 2//2 4//4 3//3 
f 3//3 4//4 5//5 
f 4//4 6//6 5//5 
f 5//5 6//6 7//7 
f 6//6 8//8 7//7 
f 7//7 8//8 9//9 
f 8//8 10//10 9//9 
f 9//9 10//10 11//11 
f 10//10 12//12 11//11 
f 11//11 12//12 13//13 
f 12//12 14//14 13//13 
f 13//13 14//14 15//15 
f 14//14 16//16 15//15 
f 15//15 16//16 17//17 
f 16//16 18//18 17//17 
f 17//17 18//18 18//18 
f 18//18 19//19 18//18 
f 18//18 19//19 19//19 
f 19//19 20//20 19//19 
f 19//19 20//20 21//21 
f 20//20 22//22 21//21 
f 21//21 22//22 23//23 
f 22//22 24//24 23//23 
f 23//23 24//24 25//25 
f 24//24 26//26 25//25 
f 25//25 26//26 27//27 
f 26//26 28//28 27//27 
f 27//27 28//28 29//29 
f 28//28 30//30 29//29 
f 29//29 30//30 31//31 
f 30//30 32//32 31//31 
f 31//31 32//32 33//33 
f 32//32 34//34 33//33 
f 33//33 34//34 35//35 
f 34//34 36//36 35//35 

