mtllib model_37.mtl
o model_37
v 98.75881958007812 286.7620849609375 159.34994506835938 
v 98.75881958007812 286.7620849609375 130.15196228027344 
v -98.75920104980469 286.7620849609375 159.34994506835938 
v -98.75920104980469 286.7620849609375 130.15196228027344 
v -98.75920104980469 294.38232421875 159.34994506835938 
v 98.75881958007812 294.38232421875 159.34994506835938 
v -98.75920104980469 286.7620849609375 159.34994506835938 
v 98.75881958007812 286.7620849609375 159.34994506835938 
v 98.75881958007812 294.38232421875 130.15196228027344 
v -98.75920104980469 294.38232421875 130.15196228027344 
v 98.75881958007812 286.7620849609375 130.15196228027344 
v -98.75920104980469 286.7620849609375 130.15196228027344 
v -98.75920104980469 286.2497863769531 129.6772003173828 
v 98.75881958007812 286.2497863769531 129.6772003173828 
v -98.75920104980469 286.2497863769531 159.82470703125 
v 98.75881958007812 286.2497863769531 159.82470703125 
v 98.75881958007812 286.2497863769531 159.82470703125 
v 98.75881958007812 294.38232421875 159.82470703125 
v -98.75920104980469 286.2497863769531 159.82470703125 
v -98.75920104980469 294.38232421875 159.82470703125 
v -98.75920104980469 286.2497863769531 129.6772003173828 
v -98.75920104980469 294.38232421875 129.6772003173828 
v 98.75881958007812 286.2497863769531 129.6772003173828 
v 98.75881958007812 294.38232421875 129.6772003173828 
v -98.75920104980469 286.7620849609375 159.34994506835938 
v -98.75920104980469 286.7620849609375 130.15196228027344 
v -98.75920104980469 286.2497863769531 159.82470703125 
v -98.75920104980469 286.2497863769531 129.6772003173828 
v 98.75881958007812 286.7620849609375 130.15196228027344 
v 98.75881958007812 286.7620849609375 159.34994506835938 
v 98.75881958007812 286.2497863769531 129.6772003173828 
v 98.75881958007812 286.2497863769531 159.82470703125 
v 98.75881958007812 286.7620849609375 159.34994506835938 
v 98.75881958007812 294.38232421875 159.34994506835938 
v 98.75881958007812 286.2497863769531 159.82470703125 
v 98.75881958007812 294.38232421875 159.82470703125 
v 98.75881958007812 294.38232421875 159.34994506835938 
v -98.75920104980469 294.38232421875 159.34994506835938 
v 98.75881958007812 294.38232421875 159.82470703125 
v -98.75920104980469 294.38232421875 159.82470703125 
v -98.75920104980469 294.38232421875 159.34994506835938 
v -98.75920104980469 286.7620849609375 159.34994506835938 
v -98.75920104980469 294.38232421875 159.82470703125 
v -98.75920104980469 286.2497863769531 159.82470703125 
v -98.75920104980469 286.7620849609375 130.15196228027344 
v -98.75920104980469 294.38232421875 130.15196228027344 
v -98.75920104980469 286.2497863769531 129.6772003173828 
v -98.75920104980469 294.38232421875 129.6772003173828 
v -98.75920104980469 294.38232421875 130.15196228027344 
v 98.75881958007812 294.38232421875 130.15196228027344 
v -98.75920104980469 294.38232421875 129.6772003173828 
v 98.75881958007812 294.38232421875 129.6772003173828 
v 98.75881958007812 294.38232421875 130.15196228027344 
v 98.75881958007812 286.7620849609375 130.15196228027344 
v 98.75881958007812 294.38232421875 129.6772003173828 
v 98.75881958007812 286.2497863769531 129.6772003173828 
vn -1.0341130485562108e-13 0.999997615814209 0.002184694167226553 
vn -1.0341130485562108e-13 0.999997615814209 0.002184694167226553 
vn -1.0341130485562108e-13 0.999997615814209 0.002184694167226553 
vn -1.0341130485562108e-13 0.999997615814209 0.002184694167226553 
vn -2.0682311115474694e-13 0 -1 
vn -2.0682311115474694e-13 0 -1 
vn -2.0682311115474694e-13 0 -1 
vn -2.0682311115474694e-13 0 -1 
vn 0 0 1 
vn 0 0 1 
vn 0 0 1 
vn 0 0 1 
vn 3.097898456858039e-13 -0.999997615814209 0.002184694167226553 
vn 3.097898456858039e-13 -0.999997615814209 0.002184694167226553 
vn 3.097898456858039e-13 -0.999997615814209 0.002184694167226553 
vn 3.097898456858039e-13 -0.999997615814209 0.002184694167226553 
vn 0 0 1 
vn 0 0 1 
vn 0 0 1 
vn 0 0 1 
vn -2.0682311115474694e-13 0 -1 
vn -2.0682311115474694e-13 0 -1 
vn -2.0682311115474694e-13 0 -1 
vn -2.0682311115474694e-13 0 -1 
vn -0.999997615814209 -2.0682260971124217e-13 0.002184694167226553 
vn -0.999997615814209 -2.0682260971124217e-13 0.002184694167226553 
vn -0.999997615814209 -2.0682260971124217e-13 0.002184694167226553 
vn -0.999997615814209 -2.0682260971124217e-13 0.002184694167226553 
vn 0.999997615814209 0 0.002184694167226553 
vn 0.999997615814209 0 0.002184694167226553 
vn 0.999997615814209 0 0.002184694167226553 
vn 0.999997615814209 0 0.002184694167226553 
vn 0.999997615814209 0 0.002184694167226553 
vn 0.999997615814209 0 0.002184694167226553 
vn 0.999997615814209 0 0.002184694167226553 
vn 0.999997615814209 0 0.002184694167226553 
vn -1.0341130485562108e-13 0.999997615814209 0.002184694167226553 
vn -1.0341130485562108e-13 0.999997615814209 0.002184694167226553 
vn -1.0341130485562108e-13 0.999997615814209 0.002184694167226553 
vn -1.0341130485562108e-13 0.999997615814209 0.002184694167226553 
vn -0.999997615814209 -2.0682260971124217e-13 0.002184694167226553 
vn -0.999997615814209 -2.0682260971124217e-13 0.002184694167226553 
vn -0.999997615814209 -2.0682260971124217e-13 0.002184694167226553 
vn -0.999997615814209 -2.0682260971124217e-13 0.002184694167226553 
vn -0.999997615814209 -2.0682260971124217e-13 0.002184694167226553 
vn -0.999997615814209 -2.0682260971124217e-13 0.002184694167226553 
vn -0.999997615814209 -2.0682260971124217e-13 0.002184694167226553 
vn -0.999997615814209 -2.0682260971124217e-13 0.002184694167226553 
vn -1.0341130485562108e-13 0.999997615814209 -0.002184694167226553 
vn -1.0341130485562108e-13 0.999997615814209 -0.002184694167226553 
vn -1.0341130485562108e-13 0.999997615814209 -0.002184694167226553 
vn -1.0341130485562108e-13 0.999997615814209 -0.002184694167226553 
vn 0.999997615814209 0 0.002184694167226553 
vn 0.999997615814209 0 0.002184694167226553 
vn 0.999997615814209 0 0.002184694167226553 
vn 0.999997615814209 0 0.002184694167226553 
vt 0.8880054354667664 0.6070168614387512 
vt 0.8880054354667664 0.4892544746398926 
vt 0.08943255990743637 0.6070168614387512 
vt 0.08943255990743637 0.4892544746398926 
vt 0.08943255990743637 0.637868344783783 
vt 0.8880054354667664 0.637868344783783 
vt 0.08943255990743637 0.6070168614387512 
vt 0.8880054354667664 0.6070168614387512 
vt 0.8880054354667664 0.45840299129486084 
vt 0.08943255990743637 0.45840299129486084 
vt 0.8880054354667664 0.4892544746398926 
vt 0.08943255990743637 0.4892544746398926 
vt 0.08933456987142563 0.8087272644042969 
vt 0.8878094553947449 0.8087272644042969 
vt 0.08933456987142563 0.6869202852249146 
vt 0.8878094553947449 0.6869202852249146 
vt 0.8878094553947449 0.6869202852249146 
vt 0.8878094553947449 0.6540465354919434 
vt 0.08933456987142563 0.6869202852249146 
vt 0.08933456987142563 0.6540465354919434 
vt 0.08933456987142563 0.8087272644042969 
vt 0.08933456987142563 0.8416010141372681 
vt 0.8878094553947449 0.8087272644042969 
vt 0.8878094553947449 0.8416010141372681 
vt 0.0872768983244896 0.6889426112174988 
vt 0.0872768983244896 0.8067049384117126 
vt 0.08933456987142563 0.6869202852249146 
vt 0.08933456987142563 0.8087272644042969 
vt 0.8898671269416809 0.8067049384117126 
vt 0.8898671269416809 0.6889426112174988 
vt 0.8878094553947449 0.8087272644042969 
vt 0.8878094553947449 0.6869202852249146 
vt 0.8898671269416809 0.6848980188369751 
vt 0.8898671269416809 0.6540465354919434 
vt 0.8878094553947449 0.6869202852249146 
vt 0.8878094553947449 0.6540465354919434 
vt 0.8878094553947449 0.6520242691040039 
vt 0.08933456987142563 0.6520242691040039 
vt 0.8878094553947449 0.6540465354919434 
vt 0.08933456987142563 0.6540465354919434 
vt 0.0872768983244896 0.6540465354919434 
vt 0.0872768983244896 0.6848980188369751 
vt 0.08933456987142563 0.6540465354919434 
vt 0.08933456987142563 0.6869202852249146 
vt 0.0872768983244896 0.8107495307922363 
vt 0.0872768983244896 0.8416010141372681 
vt 0.08933456987142563 0.8087272644042969 
vt 0.08933456987142563 0.8416010141372681 
vt 0.08933456987142563 0.8436232805252075 
vt 0.8878094553947449 0.8436232805252075 
vt 0.08933456987142563 0.8416010141372681 
vt 0.8878094553947449 0.8416010141372681 
vt 0.8898671269416809 0.8416010141372681 
vt 0.8898671269416809 0.8107495307922363 
vt 0.8878094553947449 0.8416010141372681 
vt 0.8878094553947449 0.8087272644042969 
s on 
f 1/1/1 2/2/2 3/3/3 
f 2/2/2 4/4/4 3/3/3 
f 3/3/3 4/4/4 4/4/4 
f 4/4/4 5/5/5 4/4/4 
f 4/4/4 5/5/5 5/5/5 
f 5/5/5 6/6/6 5/5/5 
f 5/5/5 6/6/6 7/7/7 
f 6/6/6 8/8/8 7/7/7 
f 7/7/7 8/8/8 8/8/8 
f 8/8/8 9/9/9 8/8/8 
f 8/8/8 9/9/9 9/9/9 
f 9/9/9 10/10/10 9/9/9 
f 9/9/9 10/10/10 11/11/11 
f 10/10/10 12/12/12 11/11/11 
f 11/11/11 12/12/12 12/12/12 
f 12/12/12 13/13/13 12/12/12 
f 12/12/12 13/13/13 13/13/13 
f 13/13/13 14/14/14 13/13/13 
f 13/13/13 14/14/14 15/15/15 
f 14/14/14 16/16/16 15/15/15 
f 15/15/15 16/16/16 16/16/16 
f 16/16/16 17/17/17 16/16/16 
f 16/16/16 17/17/17 17/17/17 
f 17/17/17 18/18/18 17/17/17 
f 17/17/17 18/18/18 19/19/19 
f 18/18/18 20/20/20 19/19/19 
f 19/19/19 20/20/20 20/20/20 
f 20/20/20 21/21/21 20/20/20 
f 20/20/20 21/21/21 21/21/21 
f 21/21/21 22/22/22 21/21/21 
f 21/21/21 22/22/22 23/23/23 
f 22/22/22 24/24/24 23/23/23 
f 23/23/23 24/24/24 24/24/24 
f 24/24/24 25/25/25 24/24/24 
f 24/24/24 25/25/25 25/25/25 
f 25/25/25 26/26/26 25/25/25 
f 25/25/25 26/26/26 27/27/27 
f 26/26/26 28/28/28 27/27/27 
f 27/27/27 28/28/28 28/28/28 
f 28/28/28 29/29/29 28/28/28 
f 28/28/28 29/29/29 29/29/29 
f 29/29/29 30/30/30 29/29/29 
f 29/29/29 30/30/30 31/31/31 
f 30/30/30 32/32/32 31/31/31 
f 31/31/31 32/32/32 32/32/32 
f 32/32/32 33/33/33 32/32/32 
f 32/32/32 33/33/33 33/33/33 
f 33/33/33 34/34/34 33/33/33 
f 33/33/33 34/34/34 35/35/35 
f 34/34/34 36/36/36 35/35/35 
f 35/35/35 36/36/36 36/36/36 
f 36/36/36 37/37/37 36/36/36 
f 36/36/36 37/37/37 37/37/37 
f 37/37/37 38/38/38 37/37/37 
f 37/37/37 38/38/38 39/39/39 
f 38/38/38 40/40/40 39/39/39 
f 39/39/39 40/40/40 40/40/40 
f 40/40/40 41/41/41 40/40/40 
f 40/40/40 41/41/41 41/41/41 
f 41/41/41 42/42/42 41/41/41 
f 41/41/41 42/42/42 43/43/43 
f 42/42/42 44/44/44 43/43/43 
f 43/43/43 44/44/44 44/44/44 
f 44/44/44 45/45/45 44/44/44 
f 44/44/44 45/45/45 45/45/45 
f 45/45/45 46/46/46 45/45/45 
f 45/45/45 46/46/46 47/47/47 
f 46/46/46 48/48/48 47/47/47 
f 47/47/47 48/48/48 48/48/48 
f 48/48/48 49/49/49 48/48/48 
f 48/48/48 49/49/49 49/49/49 
f 49/49/49 50/50/50 49/49/49 
f 49/49/49 50/50/50 51/51/51 
f 50/50/50 52/52/52 51/51/51 
f 51/51/51 52/52/52 52/52/52 
f 52/52/52 53/53/53 52/52/52 
f 52/52/52 53/53/53 53/53/53 
f 53/53/53 54/54/54 53/53/53 
f 53/53/53 54/54/54 55/55/55 
f 54/54/54 56/56/56 55/55/55 

